<?xml version="1.0" encoding="UTF-8"?>
<svg xmlns="http://www.w3.org/2000/svg" xmlns:xlink="http://www.w3.org/1999/xlink" width="1200px" height="1200px" viewBox="0 0 1200 1200" version="1.1">
<g id="surface1">
<path style=" stroke:none;fill-rule:nonzero;fill:rgb(45.490196%,54.901961%,94.509804%);fill-opacity:1;" d="M 1034.988281 519.90625 C 1028.578125 392.488281 969.8125 262.117188 842.578125 214.753906 C 701.761719 162.339844 574 227.6875 484.292969 333.703125 C 413.84375 272.773438 317.503906 275.152344 241.429688 339.714844 C 171.84375 398.773438 108.714844 505.25 176.675781 587.484375 C 32.320312 592.054688 -64.871094 807.574219 51.84375 911.75 C 211.875 1054.59375 466.242188 985.933594 659.933594 995.078125 C 861.988281 1004.613281 1110.667969 1042.554688 1186.4375 803.0625 C 1227.507812 673.246094 1174.804688 514.917969 1034.988281 519.90625 Z M 346.597656 601.460938 C 345.4375 596.929688 344.082031 592.546875 342.558594 588.289062 C 352.792969 597.957031 363.183594 607.460938 373.578125 616.949219 C 364.792969 611.460938 355.761719 606.371094 346.597656 601.460938 Z M 625.261719 809.945312 C 624.265625 810.65625 623.296875 811.398438 622.296875 812.113281 C 626.414062 806.550781 630.457031 801.050781 634.371094 795.804688 C 638.007812 799.148438 641.480469 802.65625 645.089844 806.050781 C 638.015625 805.179688 630.457031 806.277344 625.261719 809.945312 Z M 785.726562 869.609375 C 741.820312 823.453125 699.105469 776.292969 650.632812 734.757812 C 639.992188 725.644531 621.015625 722.175781 610.875 734.757812 C 574.574219 779.792969 546.371094 836.902344 499.289062 871.488281 C 470.027344 857.558594 440.765625 843.632812 411.511719 829.691406 C 420.199219 807.328125 433.34375 787.914062 450.945312 771.457031 C 470.519531 749.679688 494.011719 731.054688 516.363281 712.261719 C 527.683594 702.746094 526.371094 683.292969 516.363281 673.554688 C 475.023438 633.335938 431.820312 595.171875 390.148438 555.324219 C 413.378906 524.566406 442.144531 502.378906 476.476562 482.539062 C 492.257812 534.335938 580.035156 594.125 612.132812 618.933594 C 623.285156 627.5625 638.523438 630.265625 649.390625 618.933594 C 702.585938 563.46875 751.679688 494.324219 789.582031 426.796875 C 808.511719 454.761719 827.8125 483.386719 838.984375 514.789062 C 839.03125 515.058594 839.09375 515.304688 839.136719 515.566406 C 851.535156 554.394531 756.066406 629.457031 734.457031 652.566406 C 724.390625 663.34375 723.003906 681.488281 734.457031 692.082031 C 775.550781 730.066406 820.359375 762.972656 864.816406 796.683594 C 837.511719 820.003906 811.414062 844.492188 785.726562 869.609375 Z M 1098.253906 841.75 C 1085.351562 865.949219 1068.183594 884.664062 1048.042969 899.164062 C 1071.292969 876.019531 1091.453125 850.277344 1106.890625 823.253906 C 1104.160156 829.863281 1101.28125 836.089844 1098.253906 841.75 Z M 1098.253906 841.75 "/>
</g>
</svg>
